<svg width="16" height="17" viewBox="0 0 16 17" fill="none" xmlns="http://www.w3.org/2000/svg">
<mask id="path-1-inside-1_1_248" fill="white">
<path d="M0.458435 4.37137L7.59684 7.54403L8.08003 6.4568L0.941626 3.28418L0.458435 4.37137ZM8.4333 15.7251V7.0004H7.24357V15.7251H8.4333ZM8.08003 7.54403L15.2184 4.37137L14.7352 3.28418L7.59684 6.4568L8.08003 7.54403Z"/>
</mask>
<path d="M0.458435 4.37137L7.59684 7.54403L8.08003 6.4568L0.941626 3.28418L0.458435 4.37137ZM8.4333 15.7251V7.0004H7.24357V15.7251H8.4333ZM8.08003 7.54403L15.2184 4.37137L14.7352 3.28418L7.59684 6.4568L8.08003 7.54403Z" fill="black"/>
<path d="M0.458435 4.37137L-0.820904 3.80279L-1.38949 5.08212L-0.110164 5.65071L0.458435 4.37137ZM7.59684 7.54403L7.02824 8.82336L8.3076 9.39197L8.87619 8.1126L7.59684 7.54403ZM8.08003 6.4568L9.35938 7.02538L9.92794 5.74605L8.64862 5.17747L8.08003 6.4568ZM0.941626 3.28418L1.51022 2.00484L0.230877 1.43625L-0.337713 2.71559L0.941626 3.28418ZM8.4333 15.7251V17.1251H9.8333V15.7251H8.4333ZM8.4333 7.0004H9.8333V5.6004H8.4333V7.0004ZM7.24357 7.0004V5.6004H5.84357V7.0004H7.24357ZM7.24357 15.7251H5.84357V17.1251H7.24357V15.7251ZM8.08003 7.54403L6.80068 8.1126L7.36927 9.39197L8.64863 8.82336L8.08003 7.54403ZM15.2184 4.37137L15.787 5.65071L17.0664 5.08212L16.4978 3.80279L15.2184 4.37137ZM14.7352 3.28418L16.0146 2.71559L15.446 1.43625L14.1667 2.00484L14.7352 3.28418ZM7.59684 6.4568L7.02825 5.17747L5.74893 5.74605L6.31749 7.02538L7.59684 6.4568ZM-0.110164 5.65071L7.02824 8.82336L8.16544 6.2647L1.02703 3.09204L-0.110164 5.65071ZM8.87619 8.1126L9.35938 7.02538L6.80068 5.88823L6.31749 6.97546L8.87619 8.1126ZM8.64862 5.17747L1.51022 2.00484L0.373032 4.56352L7.51144 7.73614L8.64862 5.17747ZM-0.337713 2.71559L-0.820904 3.80279L1.73777 4.93996L2.22096 3.85277L-0.337713 2.71559ZM9.8333 15.7251V7.0004H7.0333V15.7251H9.8333ZM8.4333 5.6004H7.24357V8.4004H8.4333V5.6004ZM5.84357 7.0004V15.7251H8.64357V7.0004H5.84357ZM7.24357 17.1251H8.4333V14.3251H7.24357V17.1251ZM8.64863 8.82336L15.787 5.65071L14.6498 3.09204L7.51143 6.2647L8.64863 8.82336ZM16.4978 3.80279L16.0146 2.71559L13.4559 3.85277L13.9391 4.93996L16.4978 3.80279ZM14.1667 2.00484L7.02825 5.17747L8.16543 7.73614L15.3038 4.56352L14.1667 2.00484ZM6.31749 7.02538L6.80068 8.1126L9.35938 6.97546L8.87619 5.88823L6.31749 7.02538Z" fill="#F97316" mask="url(#path-1-inside-1_1_248)"/>
<path d="M0.700012 12.2434V4.1372C0.700012 3.94914 0.810768 3.77871 0.98263 3.70233L7.64513 0.741211C7.76822 0.686523 7.90861 0.686523 8.03171 0.741211L14.6942 3.70233C14.8661 3.77871 14.9768 3.94914 14.9768 4.1372V12.2434C14.9768 12.4315 14.8661 12.6019 14.6942 12.6783L8.03171 15.6394C7.90861 15.694 7.76822 15.694 7.64513 15.6394L0.98263 12.6783C0.810768 12.6019 0.700012 12.4315 0.700012 12.2434Z" stroke="#F97316" stroke-width="1.4" stroke-linecap="round" stroke-linejoin="round"/>
<path d="M4.26923 2.2417L11.125 5.28872C11.2969 5.3651 11.4076 5.53553 11.4076 5.72359V8.58695" stroke="#F97316" stroke-width="1.4" stroke-linecap="round" stroke-linejoin="round"/>
</svg>
