<svg width="18" height="18" viewBox="0 0 18 18" fill="none" xmlns="http://www.w3.org/2000/svg">
<path d="M14.256 9.53317C14.0947 9.53317 13.926 9.48184 13.7647 9.44517C13.438 9.37318 13.1169 9.27759 12.804 9.15917C12.4638 9.03541 12.0899 9.04183 11.7541 9.17722C11.4184 9.3126 11.1446 9.56737 10.9854 9.89251L10.824 10.2225C10.1098 9.82517 9.45341 9.33168 8.87336 8.75584C8.29752 8.17578 7.80403 7.51944 7.40669 6.80517L7.71469 6.59984C8.03983 6.44064 8.2946 6.16683 8.42998 5.83108C8.56536 5.49533 8.57179 5.12137 8.44803 4.78117C8.33159 4.46761 8.23605 4.14669 8.16203 3.82051C8.12536 3.65917 8.09603 3.49051 8.07403 3.32184C7.98497 2.80529 7.71442 2.33752 7.31108 2.00275C6.90775 1.66798 6.39814 1.48822 5.87403 1.49584H3.67403C3.35798 1.49287 3.04501 1.55803 2.75641 1.68689C2.46782 1.81575 2.21037 2.00528 2.00161 2.24258C1.79284 2.47987 1.63766 2.75937 1.54662 3.06203C1.45558 3.36469 1.43082 3.68341 1.47403 3.99651C1.8647 7.06872 3.26778 9.92322 5.46164 12.1091C7.65549 14.295 10.5151 15.6877 13.5887 16.0672H13.8674C14.4081 16.068 14.9303 15.8696 15.334 15.5098C15.566 15.3023 15.7514 15.048 15.8778 14.7635C16.0042 14.4791 16.0688 14.1711 16.0674 13.8598V11.6598C16.0584 11.1505 15.8729 10.66 15.5425 10.2721C15.2122 9.88428 14.7575 9.6231 14.256 9.53317V9.53317ZM14.6227 13.9332C14.6226 14.0373 14.6003 14.1402 14.5573 14.235C14.5143 14.3299 14.4516 14.4145 14.3734 14.4832C14.2914 14.5539 14.1956 14.6068 14.0921 14.6383C13.9885 14.6699 13.8795 14.6795 13.772 14.6665C11.0256 14.3144 8.4746 13.0579 6.52135 11.0954C4.5681 9.13284 3.32379 6.57589 2.98469 3.82784C2.97302 3.72042 2.98325 3.61175 3.01476 3.50839C3.04627 3.40504 3.09841 3.30914 3.16803 3.22651C3.23675 3.14828 3.32134 3.08559 3.41617 3.0426C3.511 2.99961 3.6139 2.9773 3.71803 2.97717H5.91803C6.08856 2.97338 6.25508 3.02915 6.38893 3.13489C6.52278 3.24063 6.61558 3.38972 6.65136 3.55651C6.68069 3.75695 6.71736 3.95495 6.76136 4.15051C6.84607 4.53708 6.95882 4.91697 7.09869 5.28717L6.07202 5.76384C5.98424 5.80411 5.90528 5.86133 5.83967 5.93221C5.77407 6.00309 5.72311 6.08622 5.68972 6.17685C5.65633 6.26747 5.64117 6.3638 5.64511 6.4603C5.64906 6.5568 5.67202 6.65157 5.71269 6.73917C6.76811 8.99986 8.58534 10.8171 10.846 11.8725C11.0246 11.9459 11.2248 11.9459 11.4034 11.8725C11.4948 11.8398 11.5789 11.7892 11.6506 11.7238C11.7224 11.6583 11.7804 11.5792 11.8214 11.4912L12.276 10.4645C12.6551 10.6001 13.0421 10.7127 13.4347 10.8018C13.6302 10.8458 13.8282 10.8825 14.0287 10.9118C14.1955 10.9476 14.3446 11.0404 14.4503 11.1743C14.556 11.3081 14.6118 11.4746 14.608 11.6452L14.6227 13.9332Z" fill="#F5993C"/>
</svg>
