<svg width="18" height="18" viewBox="0 0 18 18" fill="none" xmlns="http://www.w3.org/2000/svg">
<path d="M7.24681 0.717276C7.91921 -0.020993 9.08077 -0.020993 9.75316 0.717276L10.6178 1.66665C10.9575 2.03978 11.4459 2.24207 11.9501 2.21851L13.2328 2.15857C14.2302 2.11195 15.0516 2.93335 15.005 3.93082L14.945 5.21349C14.9215 5.7176 15.1238 6.20599 15.4969 6.54579L16.4463 7.41039C17.1846 8.08278 17.1846 9.24434 16.4463 9.91674L15.4969 10.7813C15.1238 11.1211 14.9215 11.6095 14.945 12.1137L15.005 13.3963C15.0516 14.3937 14.2302 15.2152 13.2328 15.1686L11.9501 15.1086C11.4459 15.085 10.9575 15.2873 10.6178 15.6605L9.75316 16.6098C9.08077 17.3482 7.91921 17.3482 7.24681 16.6098L6.38222 15.6605C6.04242 15.2873 5.55403 15.085 5.04992 15.1086L3.76724 15.1686C2.76978 15.2152 1.94837 14.3937 1.99499 13.3963L2.05494 12.1137C2.0785 11.6095 1.8762 11.1211 1.50308 10.7813L0.553702 9.91674C-0.184567 9.24434 -0.184567 8.08278 0.553702 7.41039L1.50308 6.54579C1.8762 6.20599 2.0785 5.7176 2.05494 5.21349L1.99499 3.93081C1.94837 2.93335 2.76978 2.11195 3.76724 2.15857L5.04992 2.21851C5.55403 2.24207 6.04242 2.03978 6.38222 1.66665L7.24681 0.717276Z" stroke="#F97316" stroke-width="1.4"/>
<path d="M5.95755 8.66372L7.65252 10.3587L11.0425 6.96875" stroke="#F97316" stroke-width="1.4" stroke-linecap="round" stroke-linejoin="round"/>
</svg>
