<svg width="18" height="18" viewBox="0 0 18 18" fill="none" xmlns="http://www.w3.org/2000/svg">
<path d="M8.80011 10.9997C8.7036 11.0002 8.60793 10.9817 8.51858 10.9452C8.42924 10.9088 8.34797 10.855 8.27945 10.787L5.34611 7.85368C5.20803 7.71559 5.13045 7.5283 5.13045 7.33301C5.13045 7.13773 5.20803 6.95044 5.34611 6.81235C5.4842 6.67426 5.67149 6.59668 5.86678 6.59668C6.06207 6.59668 6.24936 6.67426 6.38745 6.81235L8.80011 9.23235L11.2128 6.81968C11.3531 6.69954 11.5335 6.63676 11.7181 6.64389C11.9026 6.65102 12.0777 6.72753 12.2083 6.85813C12.3389 6.98874 12.4154 7.16381 12.4226 7.34837C12.4297 7.53294 12.3669 7.71339 12.2468 7.85368L9.31345 10.787C9.17686 10.9225 8.9925 10.9989 8.80011 10.9997Z" fill="#999999"/>
</svg>
