<svg width="18" height="18" viewBox="0 0 18 18" fill="none" xmlns="http://www.w3.org/2000/svg">
<path d="M14.6667 2.93311H2.93334C2.34986 2.93311 1.79028 3.16489 1.3777 3.57747C0.965122 3.99005 0.733337 4.54963 0.733337 5.13311V12.4664C0.733337 13.0499 0.965122 13.6095 1.3777 14.0221C1.79028 14.4347 2.34986 14.6664 2.93334 14.6664H14.6667C15.2501 14.6664 15.8097 14.4347 16.2223 14.0221C16.6349 13.6095 16.8667 13.0499 16.8667 12.4664V5.13311C16.8667 4.54963 16.6349 3.99005 16.2223 3.57747C15.8097 3.16489 15.2501 2.93311 14.6667 2.93311ZM15.4 12.2831L11.8067 9.05644L15.4 6.54111V12.2831ZM2.2 6.54111L5.79334 9.05644L2.2 12.2831V6.54111ZM7.02534 9.92177L8.382 10.8678C8.50476 10.9529 8.6506 10.9986 8.8 10.9986C8.94941 10.9986 9.09525 10.9529 9.218 10.8678L10.5747 9.92177L14.2413 13.1998H3.37334L7.02534 9.92177ZM2.93334 4.39977H14.6667C14.8029 4.40086 14.9361 4.43986 15.0513 4.51239C15.1666 4.58493 15.2594 4.68813 15.3193 4.81044L8.8 9.37177L2.28067 4.81044C2.34059 4.68813 2.43339 4.58493 2.54867 4.51239C2.66395 4.43986 2.79714 4.40086 2.93334 4.39977Z" fill="#F5993C"/>
</svg>
