<svg width="18" height="18" viewBox="0 0 18 18" fill="none" xmlns="http://www.w3.org/2000/svg">
<path d="M15.3268 1.4668H2.27343C2.05949 1.4668 1.85431 1.55178 1.70303 1.70306C1.55175 1.85434 1.46677 2.05952 1.46677 2.27346V15.3268C1.46677 15.4327 1.48763 15.5376 1.52817 15.6355C1.56871 15.7334 1.62813 15.8223 1.70303 15.8972C1.77794 15.9721 1.86687 16.0315 1.96474 16.0721C2.0626 16.1126 2.1675 16.1335 2.27343 16.1335H9.29877V10.4501H7.3921V8.25013H9.29877V6.60013C9.25927 6.21275 9.305 5.82142 9.43276 5.45359C9.56051 5.08576 9.76719 4.75033 10.0383 4.47083C10.3094 4.19133 10.6384 3.97453 11.0022 3.83564C11.3659 3.69674 11.7557 3.63911 12.1441 3.6668C12.7149 3.66328 13.2854 3.69267 13.8528 3.7548V5.7348H12.6868C11.7628 5.7348 11.5868 6.1748 11.5868 6.8128V8.22813H13.7868L13.5008 10.4281H11.5868V16.1335H15.3268C15.4327 16.1335 15.5376 16.1126 15.6355 16.0721C15.7333 16.0315 15.8223 15.9721 15.8972 15.8972C15.9721 15.8223 16.0315 15.7334 16.072 15.6355C16.1126 15.5376 16.1334 15.4327 16.1334 15.3268V2.27346C16.1334 2.16753 16.1126 2.06263 16.072 1.96477C16.0315 1.8669 15.9721 1.77797 15.8972 1.70306C15.8223 1.62816 15.7333 1.56874 15.6355 1.5282C15.5376 1.48766 15.4327 1.4668 15.3268 1.4668Z" fill="#313131"/>
</svg>
