<svg width="18" height="18" viewBox="0 0 18 18" fill="none" xmlns="http://www.w3.org/2000/svg">
<path d="M12.7161 4.00413C12.542 4.00413 12.3719 4.05574 12.2272 4.15244C12.0825 4.24913 11.9697 4.38657 11.9031 4.54737C11.8365 4.70817 11.819 4.88511 11.853 5.05581C11.8869 5.22651 11.9708 5.38331 12.0938 5.50638C12.2169 5.62945 12.3737 5.71327 12.5444 5.74722C12.7151 5.78118 12.892 5.76375 13.0528 5.69714C13.2136 5.63054 13.3511 5.51775 13.4478 5.37303C13.5445 5.22832 13.5961 5.05818 13.5961 4.88413C13.5961 4.65074 13.5034 4.42691 13.3383 4.26188C13.1733 4.09684 12.9495 4.00413 12.7161 4.00413ZM16.0894 5.7788C16.0752 5.17035 15.9612 4.56836 15.7521 3.9968C15.5656 3.50776 15.2754 3.06493 14.9014 2.6988C14.5383 2.32291 14.0944 2.03453 13.6034 1.85546C13.0334 1.63998 12.4307 1.52342 11.8214 1.5108C11.0441 1.4668 10.7948 1.4668 8.80008 1.4668C6.80542 1.4668 6.55608 1.4668 5.77875 1.5108C5.16946 1.52342 4.5668 1.63998 3.99675 1.85546C3.50665 2.03634 3.06317 2.32447 2.69875 2.6988C2.32286 3.06193 2.03448 3.50579 1.85542 3.9968C1.63994 4.56685 1.52337 5.16951 1.51075 5.7788C1.46675 6.55613 1.46675 6.80546 1.46675 8.80013C1.46675 10.7948 1.46675 11.0441 1.51075 11.8215C1.52337 12.4308 1.63994 13.0334 1.85542 13.6035C2.03448 14.0945 2.32286 14.5383 2.69875 14.9015C3.06317 15.2758 3.50665 15.5639 3.99675 15.7448C4.5668 15.9603 5.16946 16.0768 5.77875 16.0895C6.55608 16.1335 6.80542 16.1335 8.80008 16.1335C10.7948 16.1335 11.0441 16.1335 11.8214 16.0895C12.4307 16.0768 13.0334 15.9603 13.6034 15.7448C14.0944 15.5657 14.5383 15.2774 14.9014 14.9015C15.2771 14.5367 15.5675 14.0935 15.7521 13.6035C15.9612 13.0319 16.0752 12.4299 16.0894 11.8215C16.0894 11.0441 16.1334 10.7948 16.1334 8.80013C16.1334 6.80546 16.1334 6.55613 16.0894 5.7788ZM14.7694 11.7335C14.7641 12.199 14.6798 12.6602 14.5201 13.0975C14.403 13.4166 14.2149 13.705 13.9701 13.9408C13.7322 14.1832 13.4445 14.3708 13.1268 14.4908C12.6895 14.6505 12.2283 14.7348 11.7628 14.7401C11.0294 14.7768 10.7581 14.7841 8.82942 14.7841C6.90075 14.7841 6.62942 14.7841 5.89608 14.7401C5.41274 14.7492 4.93145 14.6748 4.47342 14.5201C4.16966 14.3941 3.89508 14.2068 3.66675 13.9701C3.42335 13.7345 3.23764 13.4459 3.12408 13.1268C2.94505 12.6832 2.84574 12.2116 2.83075 11.7335C2.83075 11.0001 2.78675 10.7288 2.78675 8.80013C2.78675 6.87146 2.78675 6.60013 2.83075 5.8668C2.83404 5.3909 2.92091 4.91929 3.08742 4.47346C3.21652 4.16393 3.41468 3.88801 3.66675 3.6668C3.88955 3.41465 4.1649 3.2144 4.47342 3.08013C4.92042 2.91883 5.39155 2.83452 5.86675 2.8308C6.60008 2.8308 6.87142 2.7868 8.80008 2.7868C10.7288 2.7868 11.0001 2.7868 11.7334 2.8308C12.1989 2.83614 12.6601 2.92044 13.0974 3.08013C13.4307 3.20381 13.7298 3.40488 13.9701 3.6668C14.2104 3.89206 14.3982 4.16747 14.5201 4.47346C14.6831 4.92001 14.7674 5.39144 14.7694 5.8668C14.8061 6.60013 14.8134 6.87146 14.8134 8.80013C14.8134 10.7288 14.8061 11.0001 14.7694 11.7335ZM8.80008 5.03813C8.05635 5.03958 7.32972 5.26145 6.71203 5.6757C6.09434 6.08996 5.6133 6.67801 5.32968 7.36555C5.04607 8.05309 4.97262 8.80927 5.1186 9.53855C5.26458 10.2678 5.62346 10.9375 6.14987 11.4628C6.67629 11.9882 7.34663 12.3458 8.07618 12.4904C8.80574 12.6349 9.56177 12.56 10.2488 12.2751C10.9358 11.9901 11.5229 11.5079 11.9359 10.8894C12.349 10.2709 12.5694 9.54387 12.5694 8.80013C12.5704 8.30521 12.4735 7.81498 12.2843 7.35763C12.0952 6.90029 11.8174 6.48486 11.4671 6.13523C11.1168 5.78561 10.7008 5.50869 10.2431 5.32041C9.78543 5.13213 9.295 5.0362 8.80008 5.03813ZM8.80008 11.2421C8.3171 11.2421 7.84497 11.0989 7.44338 10.8306C7.0418 10.5622 6.7288 10.1809 6.54397 9.73464C6.35914 9.28843 6.31078 8.79742 6.40501 8.32372C6.49923 7.85002 6.73181 7.4149 7.07333 7.07338C7.41485 6.73186 7.84997 6.49928 8.32367 6.40505C8.79738 6.31083 9.28838 6.35919 9.7346 6.54402C10.1808 6.72885 10.5622 7.04184 10.8305 7.44343C11.0989 7.84501 11.2421 8.31715 11.2421 8.80013C11.2421 9.12082 11.1789 9.43837 11.0562 9.73464C10.9335 10.0309 10.7536 10.3001 10.5268 10.5269C10.3001 10.7536 10.0309 10.9335 9.7346 11.0562C9.43832 11.179 9.12077 11.2421 8.80008 11.2421Z" fill="#313131"/>
</svg>
