<svg width="17" height="17" viewBox="0 0 17 17" fill="none" xmlns="http://www.w3.org/2000/svg">
<path d="M12.0414 15.808H1.22458C0.934868 15.808 0.700012 15.5731 0.700012 15.2834V6.71553C0.700012 6.42582 0.934868 6.19096 1.22458 6.19096H3.64423C4.25843 6.19096 4.82759 5.86871 5.14359 5.34204L7.51322 1.39261C8.02458 0.540435 9.22889 0.459425 9.84971 1.23546C10.1423 1.60125 10.2367 2.08743 10.102 2.53612L9.20817 5.51567C9.10719 5.85223 9.35924 6.19096 9.71061 6.19096H13.7105C14.8634 6.19096 15.7008 7.2873 15.3974 8.39955L13.7283 14.5195C13.5209 15.2802 12.8299 15.808 12.0414 15.808Z" stroke="#F97316" stroke-width="1.4" stroke-linecap="round"/>
<path d="M3.75995 15.8079V6.19092" stroke="#F97316" stroke-width="1.4" stroke-linecap="round" stroke-linejoin="round"/>
</svg>
