<svg width="18" height="18" viewBox="0 0 18 18" fill="none" xmlns="http://www.w3.org/2000/svg">
<g clip-path="url(#clip0_1_181)">
<path d="M15.4663 0.987305H1.96654C1.32009 0.987305 0.796143 1.49524 0.796143 2.12215V15.6919C0.796143 16.3188 1.32027 16.8273 1.96654 16.8273H15.4663C16.1127 16.8273 16.636 16.3187 16.636 15.6919V2.12215C16.636 1.49542 16.1127 0.987305 15.4663 0.987305ZM5.5983 14.2464H3.20505V7.09486H5.5983V14.2464ZM4.40185 6.11788H4.38584C3.58328 6.11788 3.06302 5.56894 3.06302 4.88183C3.06302 4.18082 3.59859 3.64684 4.41699 3.64684C5.23557 3.64684 5.7391 4.18065 5.75494 4.88183C5.75494 5.56911 5.23574 6.11788 4.40185 6.11788ZM14.2255 14.2464H11.8329V10.4202C11.8329 9.45854 11.4862 8.80258 10.621 8.80258C9.95905 8.80258 9.56622 9.24522 9.39374 9.67238C9.32968 9.82514 9.31402 10.0385 9.31402 10.2518V14.2463H6.92182C6.92182 14.2463 6.95315 7.76542 6.92182 7.09468H9.31419V8.10862C9.63187 7.62145 10.1993 6.92642 11.47 6.92642C13.0447 6.92642 14.2255 7.94793 14.2255 10.1456V14.2464ZM9.2987 8.13132C9.30293 8.12463 9.30856 8.11654 9.31419 8.10879V8.13132H9.2987Z" fill="#313131"/>
</g>
<defs>
<clipPath id="clip0_1_181">
<rect width="17.6" height="17.6" fill="white"/>
</clipPath>
</defs>
</svg>
