<svg width="19" height="19" viewBox="0 0 19 19" fill="none" xmlns="http://www.w3.org/2000/svg">
<path d="M3.52844 15.6625V2.8279C3.52844 2.27356 4.14056 1.93951 4.60642 2.23745L14.6387 8.65477C15.0702 8.93104 15.0702 9.55941 14.6387 9.83567L4.60642 16.253C4.14056 16.5509 3.52844 16.2169 3.52844 15.6625Z" fill="#313131"/>
<path d="M3.79924 15.6622C3.79924 15.4094 3.79924 15.1548 3.79924 14.902C3.79924 14.2574 3.79924 13.6128 3.79924 12.9682C3.79924 12.0924 3.79924 11.2167 3.79924 10.3427C3.79924 9.40379 3.79924 8.46485 3.79924 7.5241C3.79924 6.68627 3.79924 5.84844 3.79924 5.00881C3.79924 4.43641 3.79924 3.86582 3.79924 3.29343C3.79924 3.15981 3.79924 3.02439 3.79924 2.89077C3.79924 2.8709 3.79924 2.84924 3.79924 2.82937C3.79924 2.82035 3.79924 2.81673 3.79924 2.80409C3.79924 2.78784 3.80105 2.7734 3.80285 2.75715C3.79924 2.81493 3.80105 2.76618 3.80466 2.74992C3.81369 2.71742 3.82272 2.68492 3.83174 2.65422C3.81369 2.70839 3.82633 2.66325 3.83535 2.64881C3.84799 2.62714 3.85883 2.60547 3.87327 2.5838C3.8805 2.57116 3.88952 2.56033 3.89675 2.5495C3.86425 2.59464 3.88591 2.56394 3.89494 2.55491C3.92022 2.52963 3.94369 2.50616 3.97078 2.48269C3.92744 2.52061 3.95995 2.48991 3.97439 2.48088C3.98884 2.47185 4.00328 2.46282 4.01953 2.4538C4.03217 2.44657 4.04481 2.44116 4.05745 2.43393C4.10982 2.40504 4.01773 2.44477 4.07009 2.42852C4.1044 2.41949 4.1369 2.40865 4.17121 2.40143C4.2326 2.38518 4.13509 2.39602 4.17301 2.40143C4.18926 2.40324 4.20913 2.39963 4.22538 2.39963C4.23982 2.39963 4.25427 2.39963 4.26871 2.40143C4.27233 2.40143 4.33913 2.41407 4.2976 2.40324C4.25427 2.3924 4.32469 2.41046 4.3265 2.41046C4.34816 2.41588 4.36983 2.4231 4.38969 2.43032C4.43664 2.44477 4.39872 2.43393 4.38789 2.42852C4.40956 2.43935 4.42942 2.45019 4.44928 2.46102C4.4565 2.46463 4.46373 2.47005 4.46914 2.47366C4.47095 2.47546 4.47275 2.47546 4.47456 2.47727C4.49984 2.49352 4.52692 2.50977 4.5522 2.52602C4.68763 2.61269 4.82125 2.69756 4.95667 2.78423C5.48212 3.12009 6.00937 3.45774 6.53482 3.7936C7.27514 4.26849 8.01727 4.74157 8.75759 5.21646C9.54305 5.71843 10.3285 6.22221 11.1158 6.72419C11.7929 7.15755 12.4682 7.5891 13.1454 8.02246C13.548 8.28067 13.9507 8.53888 14.3551 8.79528C14.3949 8.82056 14.4328 8.84584 14.4725 8.86932C14.4815 8.87473 14.4906 8.88015 14.4996 8.88557C14.5014 8.88557 14.5032 8.88737 14.5032 8.88737C14.5158 8.8964 14.5303 8.90543 14.5429 8.91446C14.5014 8.88196 14.5411 8.91446 14.5502 8.92349C14.5682 8.94335 14.5863 8.9614 14.6043 8.97946C14.6152 8.99029 14.626 9.01919 14.6025 8.97766C14.6097 8.9903 14.6188 9.00113 14.626 9.01377C14.6368 9.03183 14.6459 9.05169 14.6567 9.07155C14.6639 9.086 14.6693 9.11669 14.6549 9.06613C14.6657 9.10044 14.6766 9.13294 14.6856 9.16906C14.6892 9.1835 14.691 9.19614 14.6928 9.21059C14.682 9.14197 14.691 9.20697 14.691 9.22323C14.691 9.24309 14.682 9.34962 14.6928 9.2774C14.6874 9.3117 14.6802 9.34782 14.6693 9.38032C14.6657 9.39476 14.6603 9.4074 14.6549 9.42004C14.6729 9.36407 14.6603 9.40921 14.6513 9.42365C14.6422 9.43991 14.635 9.45616 14.6242 9.4706C14.6188 9.47782 14.5772 9.53561 14.6152 9.48685C14.5917 9.51574 14.5646 9.54102 14.5375 9.56811C14.5303 9.57533 14.4978 9.60061 14.5375 9.56991C14.5231 9.58075 14.514 9.58616 14.4978 9.597C14.496 9.597 14.496 9.5988 14.4942 9.5988C14.487 9.60422 14.4779 9.60964 14.4707 9.61325C14.1637 9.81007 13.8568 10.0051 13.5498 10.2019C12.9305 10.5973 12.3111 10.9946 11.6918 11.39C10.9136 11.8866 10.1371 12.3849 9.35888 12.8815C8.59508 13.3708 7.82948 13.8602 7.06568 14.3495C6.46801 14.7323 5.87034 15.1151 5.27266 15.4961C5.00542 15.6676 4.73999 15.841 4.47095 16.0089C4.44206 16.027 4.41317 16.0432 4.38247 16.0595C4.42761 16.036 4.39511 16.054 4.38428 16.0577C4.36622 16.0631 4.34816 16.0685 4.33011 16.0739C4.31205 16.0793 4.29399 16.0811 4.27594 16.0865C4.32469 16.0721 4.30302 16.0847 4.28316 16.0847C4.24705 16.0865 4.21274 16.0865 4.17663 16.0847C4.12607 16.0829 4.17482 16.0847 4.18565 16.0865C4.16579 16.0829 4.14412 16.0793 4.12426 16.0739C4.1062 16.0703 4.02856 16.0414 4.05745 16.054C4.08634 16.0667 4.0105 16.0288 3.99606 16.0197C3.98161 16.0107 3.96717 15.9981 3.95272 15.9908C3.91842 15.9746 3.99425 16.0324 3.94911 15.9872C3.92383 15.962 3.89855 15.9385 3.87508 15.9114C3.913 15.9529 3.86786 15.8988 3.85522 15.8807C3.84438 15.8626 3.83535 15.8428 3.82452 15.8247C3.8173 15.8103 3.81369 15.7814 3.82633 15.8301C3.8173 15.794 3.80466 15.7597 3.79563 15.7236C3.79202 15.7092 3.79382 15.6749 3.79563 15.7272C3.80105 15.7092 3.79924 15.6857 3.79924 15.6622C3.79744 15.5214 3.67646 15.3841 3.52839 15.3914C3.38394 15.3986 3.25574 15.5105 3.25754 15.6622C3.26296 16.0197 3.45797 16.3646 3.7848 16.5253C4.09356 16.677 4.45109 16.668 4.74541 16.4856C4.81222 16.4441 4.87903 16.4007 4.94403 16.3574C5.38281 16.0775 5.82158 15.7958 6.26036 15.516C6.96637 15.0645 7.67239 14.6131 8.3784 14.1617C9.17831 13.6489 9.98002 13.1379 10.7799 12.6251C11.5094 12.1592 12.2389 11.6916 12.9684 11.2257C13.4595 10.9115 13.9525 10.5973 14.4436 10.2813C14.5465 10.2163 14.6495 10.1495 14.7524 10.0845C14.8499 10.0213 14.942 9.9491 15.0142 9.85701C15.2508 9.55908 15.2941 9.16364 15.1334 8.81876C15.0341 8.60749 14.8571 8.47388 14.6693 8.3529C14.5249 8.26081 14.3786 8.16691 14.2342 8.07482C13.6834 7.72272 13.1327 7.37062 12.5838 7.01851C11.8254 6.53279 11.0652 6.04706 10.3068 5.56134C9.50875 5.05214 8.71245 4.54114 7.91435 4.03195C7.24806 3.60581 6.58177 3.17967 5.91548 2.75354C5.55073 2.52061 5.1878 2.28768 4.82305 2.05474C4.57568 1.89585 4.30122 1.81459 4.00509 1.8814C3.54825 1.98432 3.25754 2.40504 3.25574 2.86007C3.25574 3.21217 3.25574 3.56247 3.25574 3.91458C3.25574 4.63684 3.25574 5.35911 3.25574 6.08137C3.25574 6.99865 3.25574 7.91412 3.25574 8.8314C3.25574 9.77215 3.25574 10.7147 3.25574 11.6555C3.25574 12.4517 3.25574 13.248 3.25574 14.0462C3.25574 14.5228 3.25574 14.9977 3.25574 15.4744C3.25574 15.5376 3.25574 15.6008 3.25574 15.6658C3.25574 15.8067 3.38033 15.9439 3.52659 15.9367C3.67465 15.9258 3.79924 15.8139 3.79924 15.6622Z" fill="#313131"/>
</svg>
