<svg width="18" height="18" viewBox="0 0 18 18" fill="none" xmlns="http://www.w3.org/2000/svg">
<path d="M16.9125 3.76426C16.3144 4.02895 15.675 4.2077 15.0013 4.2902C15.6888 3.8777 16.2182 3.22457 16.4657 2.4477C15.8228 2.82926 15.1113 3.1077 14.3516 3.25551C13.7432 2.60582 12.8769 2.2002 11.9213 2.2002C10.0822 2.2002 8.59378 3.69207 8.59378 5.53113C8.59378 5.79238 8.62128 6.04676 8.67971 6.29082C5.91253 6.15332 3.45815 4.82645 1.81846 2.80863C1.53315 3.3002 1.36815 3.87426 1.36815 4.4827C1.36815 5.6377 1.9594 6.65863 2.85315 7.25676C2.30315 7.24301 1.78753 7.09176 1.34065 6.84082V6.88207C1.34065 8.4977 2.48878 9.84176 4.01159 10.1477C3.73315 10.2233 3.43753 10.2646 3.13503 10.2646C2.9219 10.2646 2.71221 10.2439 2.5094 10.2027C2.93221 11.5261 4.16284 12.4886 5.62034 12.5161C4.48253 13.4099 3.04565 13.9427 1.48503 13.9427C1.2169 13.9427 0.952214 13.9255 0.690964 13.8946C2.15878 14.8502 3.90846 15.4002 5.78534 15.4002C11.9144 15.4002 15.2625 10.323 15.2625 5.91957C15.2625 5.7752 15.2591 5.63082 15.2522 5.48988C15.9019 5.01895 16.4657 4.43457 16.9125 3.76426Z" fill="#313131"/>
</svg>
