<svg width="17" height="18" viewBox="0 0 17 18" fill="none" xmlns="http://www.w3.org/2000/svg">
<path d="M10.2916 11.2622L10.9947 12.8702C10.9947 12.8702 14.1586 13.5842 14.1586 15.2823C14.1586 16.4883 12.7524 16.4883 12.7524 16.4883H9.00264L7.15704 15.3989" stroke="#F97316" stroke-width="1.6" stroke-linecap="round" stroke-linejoin="round"/>
<path d="M6.07399 11.2622L5.3709 12.8702C5.3709 12.8702 2.20703 13.5842 2.20703 15.2823C2.20703 16.4883 3.61319 16.4883 3.61319 16.4883H5.31231L7.15793 15.3989L9.41366 13.8737" stroke="#F97316" stroke-width="1.6" stroke-linecap="round" stroke-linejoin="round"/>
<path d="M0.800171 12.0666C0.800171 12.0666 2.55788 11.6647 3.6125 11.2626C4.66713 5.63455 7.83098 6.03655 8.18255 6.03655C8.53411 6.03655 11.698 5.63455 12.7526 11.2626C13.8072 11.6647 15.5649 12.0666 15.5649 12.0666" stroke="#F97316" stroke-width="1.6" stroke-linecap="round" stroke-linejoin="round"/>
<path d="M8.18191 4.28596C9.08797 4.28596 9.82244 3.50556 9.82244 2.54288C9.82244 1.58021 9.08797 0.799805 8.18191 0.799805C7.27585 0.799805 6.54138 1.58021 6.54138 2.54288C6.54138 3.50556 7.27585 4.28596 8.18191 4.28596Z" stroke="#F97316" stroke-width="1.6" stroke-linecap="round" stroke-linejoin="round"/>
</svg>
